<svg width="1600" height="640" viewBox="0 0 1600 640" fill="none" xmlns="http://www.w3.org/2000/svg">
  <defs>
    <linearGradient id="bg" x1="40" y1="28" x2="1548" y2="606" gradientUnits="userSpaceOnUse">
      <stop stop-color="#94806D" />
      <stop offset="0.35" stop-color="#63584D" />
      <stop offset="0.72" stop-color="#2D2926" />
      <stop offset="1" stop-color="#0E0D0C" />
    </linearGradient>
    <linearGradient id="glass" x1="94" y1="92" x2="742" y2="536" gradientUnits="userSpaceOnUse">
      <stop stop-color="#0A0E13" stop-opacity="0.84" />
      <stop offset="1" stop-color="#141B22" stop-opacity="0.66" />
    </linearGradient>
    <linearGradient id="chipGlow" x1="983" y1="198" x2="1237" y2="386" gradientUnits="userSpaceOnUse">
      <stop stop-color="#3AA0FF" />
      <stop offset="0.5" stop-color="#34D5C9" />
      <stop offset="1" stop-color="#8E69FF" />
    </linearGradient>
    <linearGradient id="chipFrame" x1="965" y1="178" x2="1255" y2="406" gradientUnits="userSpaceOnUse">
      <stop stop-color="#DCC9B5" />
      <stop offset="1" stop-color="#8D7B68" />
    </linearGradient>
    <filter id="shadow" x="-20%" y="-20%" width="140%" height="140%">
      <feGaussianBlur stdDeviation="18" />
    </filter>
    <filter id="soft" x="-20%" y="-20%" width="140%" height="140%">
      <feGaussianBlur stdDeviation="8" />
    </filter>
  </defs>

  <rect width="1600" height="640" rx="28" fill="url(#bg)" />
  <rect width="1600" height="640" rx="28" fill="#000000" fill-opacity="0.18" />
  <rect x="8" y="8" width="1584" height="624" rx="22" stroke="#E3D5C7" stroke-opacity="0.18" />

  <g opacity="0.12">
    <path d="M0 84H1600" stroke="#FFF0E0" />
    <path d="M0 156H1600" stroke="#FFF0E0" />
    <path d="M0 228H1600" stroke="#FFF0E0" />
    <path d="M0 300H1600" stroke="#FFF0E0" />
    <path d="M0 372H1600" stroke="#FFF0E0" />
    <path d="M0 444H1600" stroke="#FFF0E0" />
    <path d="M0 516H1600" stroke="#FFF0E0" />
    <path d="M116 0V640" stroke="#FFF0E0" />
    <path d="M248 0V640" stroke="#FFF0E0" />
    <path d="M380 0V640" stroke="#FFF0E0" />
    <path d="M512 0V640" stroke="#FFF0E0" />
    <path d="M644 0V640" stroke="#FFF0E0" />
    <path d="M776 0V640" stroke="#FFF0E0" />
    <path d="M908 0V640" stroke="#FFF0E0" />
    <path d="M1040 0V640" stroke="#FFF0E0" />
    <path d="M1172 0V640" stroke="#FFF0E0" />
    <path d="M1304 0V640" stroke="#FFF0E0" />
    <path d="M1436 0V640" stroke="#FFF0E0" />
  </g>

  <g><line x1="32.0" y1="0.0" x2="977.0" y2="178.0" stroke="#E6D5C3" stroke-opacity="0.18" stroke-width="3" stroke-linecap="round" /><line x1="32.0" y1="640.0" x2="977.0" y2="406.0" stroke="#E6D5C3" stroke-opacity="0.18" stroke-width="3" stroke-linecap="round" /><line x1="90.0" y1="0.0" x2="987.6" y2="178.0" stroke="#E6D5C3" stroke-opacity="0.18" stroke-width="3" stroke-linecap="round" /><line x1="90.0" y1="640.0" x2="987.6" y2="406.0" stroke="#E6D5C3" stroke-opacity="0.18" stroke-width="3" stroke-linecap="round" /><line x1="148.0" y1="0.0" x2="998.3" y2="178.0" stroke="#E6D5C3" stroke-opacity="0.18" stroke-width="3" stroke-linecap="round" /><line x1="148.0" y1="640.0" x2="998.3" y2="406.0" stroke="#E6D5C3" stroke-opacity="0.18" stroke-width="3" stroke-linecap="round" /><line x1="206.0" y1="0.0" x2="1008.9" y2="178.0" stroke="#E6D5C3" stroke-opacity="0.18" stroke-width="3" stroke-linecap="round" /><line x1="206.0" y1="640.0" x2="1008.9" y2="406.0" stroke="#E6D5C3" stroke-opacity="0.18" stroke-width="3" stroke-linecap="round" /><line x1="264.0" y1="0.0" x2="1019.6" y2="178.0" stroke="#E6D5C3" stroke-opacity="0.18" stroke-width="3" stroke-linecap="round" /><line x1="264.0" y1="640.0" x2="1019.6" y2="406.0" stroke="#E6D5C3" stroke-opacity="0.18" stroke-width="3" stroke-linecap="round" /><line x1="322.0" y1="0.0" x2="1030.2" y2="178.0" stroke="#E6D5C3" stroke-opacity="0.18" stroke-width="3" stroke-linecap="round" /><line x1="322.0" y1="640.0" x2="1030.2" y2="406.0" stroke="#E6D5C3" stroke-opacity="0.18" stroke-width="3" stroke-linecap="round" /><line x1="380.0" y1="0.0" x2="1040.8" y2="178.0" stroke="#E6D5C3" stroke-opacity="0.18" stroke-width="3" stroke-linecap="round" /><line x1="380.0" y1="640.0" x2="1040.8" y2="406.0" stroke="#E6D5C3" stroke-opacity="0.18" stroke-width="3" stroke-linecap="round" /><line x1="438.0" y1="0.0" x2="1051.5" y2="178.0" stroke="#E6D5C3" stroke-opacity="0.18" stroke-width="3" stroke-linecap="round" /><line x1="438.0" y1="640.0" x2="1051.5" y2="406.0" stroke="#E6D5C3" stroke-opacity="0.18" stroke-width="3" stroke-linecap="round" /><line x1="496.0" y1="0.0" x2="1062.1" y2="178.0" stroke="#E6D5C3" stroke-opacity="0.18" stroke-width="3" stroke-linecap="round" /><line x1="496.0" y1="640.0" x2="1062.1" y2="406.0" stroke="#E6D5C3" stroke-opacity="0.18" stroke-width="3" stroke-linecap="round" /><line x1="554.0" y1="0.0" x2="1072.8" y2="178.0" stroke="#E6D5C3" stroke-opacity="0.18" stroke-width="3" stroke-linecap="round" /><line x1="554.0" y1="640.0" x2="1072.8" y2="406.0" stroke="#E6D5C3" stroke-opacity="0.18" stroke-width="3" stroke-linecap="round" /><line x1="612.0" y1="0.0" x2="1083.4" y2="178.0" stroke="#E6D5C3" stroke-opacity="0.18" stroke-width="3" stroke-linecap="round" /><line x1="612.0" y1="640.0" x2="1083.4" y2="406.0" stroke="#E6D5C3" stroke-opacity="0.18" stroke-width="3" stroke-linecap="round" /><line x1="670.0" y1="0.0" x2="1094.0" y2="178.0" stroke="#E6D5C3" stroke-opacity="0.18" stroke-width="3" stroke-linecap="round" /><line x1="670.0" y1="640.0" x2="1094.0" y2="406.0" stroke="#E6D5C3" stroke-opacity="0.18" stroke-width="3" stroke-linecap="round" /><line x1="728.0" y1="0.0" x2="1104.7" y2="178.0" stroke="#E6D5C3" stroke-opacity="0.18" stroke-width="3" stroke-linecap="round" /><line x1="728.0" y1="640.0" x2="1104.7" y2="406.0" stroke="#E6D5C3" stroke-opacity="0.18" stroke-width="3" stroke-linecap="round" /><line x1="786.0" y1="0.0" x2="1115.3" y2="178.0" stroke="#E6D5C3" stroke-opacity="0.18" stroke-width="3" stroke-linecap="round" /><line x1="786.0" y1="640.0" x2="1115.3" y2="406.0" stroke="#E6D5C3" stroke-opacity="0.18" stroke-width="3" stroke-linecap="round" /><line x1="844.0" y1="0.0" x2="1126.0" y2="178.0" stroke="#E6D5C3" stroke-opacity="0.18" stroke-width="3" stroke-linecap="round" /><line x1="844.0" y1="640.0" x2="1126.0" y2="406.0" stroke="#E6D5C3" stroke-opacity="0.18" stroke-width="3" stroke-linecap="round" /><line x1="902.0" y1="0.0" x2="1136.6" y2="178.0" stroke="#E6D5C3" stroke-opacity="0.18" stroke-width="3" stroke-linecap="round" /><line x1="902.0" y1="640.0" x2="1136.6" y2="406.0" stroke="#E6D5C3" stroke-opacity="0.18" stroke-width="3" stroke-linecap="round" /><line x1="960.0" y1="0.0" x2="1147.2" y2="178.0" stroke="#E6D5C3" stroke-opacity="0.18" stroke-width="3" stroke-linecap="round" /><line x1="960.0" y1="640.0" x2="1147.2" y2="406.0" stroke="#E6D5C3" stroke-opacity="0.18" stroke-width="3" stroke-linecap="round" /><line x1="1018.0" y1="0.0" x2="1157.9" y2="178.0" stroke="#E6D5C3" stroke-opacity="0.18" stroke-width="3" stroke-linecap="round" /><line x1="1018.0" y1="640.0" x2="1157.9" y2="406.0" stroke="#E6D5C3" stroke-opacity="0.18" stroke-width="3" stroke-linecap="round" /><line x1="1076.0" y1="0.0" x2="1168.5" y2="178.0" stroke="#E6D5C3" stroke-opacity="0.18" stroke-width="3" stroke-linecap="round" /><line x1="1076.0" y1="640.0" x2="1168.5" y2="406.0" stroke="#E6D5C3" stroke-opacity="0.18" stroke-width="3" stroke-linecap="round" /><line x1="1134.0" y1="0.0" x2="1179.2" y2="178.0" stroke="#E6D5C3" stroke-opacity="0.18" stroke-width="3" stroke-linecap="round" /><line x1="1134.0" y1="640.0" x2="1179.2" y2="406.0" stroke="#E6D5C3" stroke-opacity="0.18" stroke-width="3" stroke-linecap="round" /><line x1="1192.0" y1="0.0" x2="1189.8" y2="178.0" stroke="#E6D5C3" stroke-opacity="0.18" stroke-width="3" stroke-linecap="round" /><line x1="1192.0" y1="640.0" x2="1189.8" y2="406.0" stroke="#E6D5C3" stroke-opacity="0.18" stroke-width="3" stroke-linecap="round" /><line x1="1250.0" y1="0.0" x2="1200.4" y2="178.0" stroke="#E6D5C3" stroke-opacity="0.18" stroke-width="3" stroke-linecap="round" /><line x1="1250.0" y1="640.0" x2="1200.4" y2="406.0" stroke="#E6D5C3" stroke-opacity="0.18" stroke-width="3" stroke-linecap="round" /><line x1="1308.0" y1="0.0" x2="1211.1" y2="178.0" stroke="#E6D5C3" stroke-opacity="0.18" stroke-width="3" stroke-linecap="round" /><line x1="1308.0" y1="640.0" x2="1211.1" y2="406.0" stroke="#E6D5C3" stroke-opacity="0.18" stroke-width="3" stroke-linecap="round" /><line x1="1366.0" y1="0.0" x2="1221.7" y2="178.0" stroke="#E6D5C3" stroke-opacity="0.18" stroke-width="3" stroke-linecap="round" /><line x1="1366.0" y1="640.0" x2="1221.7" y2="406.0" stroke="#E6D5C3" stroke-opacity="0.18" stroke-width="3" stroke-linecap="round" /><line x1="1424.0" y1="0.0" x2="1232.4" y2="178.0" stroke="#E6D5C3" stroke-opacity="0.18" stroke-width="3" stroke-linecap="round" /><line x1="1424.0" y1="640.0" x2="1232.4" y2="406.0" stroke="#E6D5C3" stroke-opacity="0.18" stroke-width="3" stroke-linecap="round" /><line x1="1482.0" y1="0.0" x2="1243.0" y2="178.0" stroke="#E6D5C3" stroke-opacity="0.18" stroke-width="3" stroke-linecap="round" /><line x1="1482.0" y1="640.0" x2="1243.0" y2="406.0" stroke="#E6D5C3" stroke-opacity="0.18" stroke-width="3" stroke-linecap="round" /><line x1="0.0" y1="26.0" x2="965.0" y2="188.0" stroke="#E6D5C3" stroke-opacity="0.16" stroke-width="3" stroke-linecap="round" /><line x1="1600.0" y1="26.0" x2="1255.0" y2="188.0" stroke="#E6D5C3" stroke-opacity="0.16" stroke-width="3" stroke-linecap="round" /><line x1="0.0" y1="60.0" x2="965.0" y2="200.2" stroke="#E6D5C3" stroke-opacity="0.16" stroke-width="3" stroke-linecap="round" /><line x1="1600.0" y1="60.0" x2="1255.0" y2="200.2" stroke="#E6D5C3" stroke-opacity="0.16" stroke-width="3" stroke-linecap="round" /><line x1="0.0" y1="94.0" x2="965.0" y2="212.5" stroke="#E6D5C3" stroke-opacity="0.16" stroke-width="3" stroke-linecap="round" /><line x1="1600.0" y1="94.0" x2="1255.0" y2="212.5" stroke="#E6D5C3" stroke-opacity="0.16" stroke-width="3" stroke-linecap="round" /><line x1="0.0" y1="128.0" x2="965.0" y2="224.7" stroke="#E6D5C3" stroke-opacity="0.16" stroke-width="3" stroke-linecap="round" /><line x1="1600.0" y1="128.0" x2="1255.0" y2="224.7" stroke="#E6D5C3" stroke-opacity="0.16" stroke-width="3" stroke-linecap="round" /><line x1="0.0" y1="162.0" x2="965.0" y2="236.9" stroke="#E6D5C3" stroke-opacity="0.16" stroke-width="3" stroke-linecap="round" /><line x1="1600.0" y1="162.0" x2="1255.0" y2="236.9" stroke="#E6D5C3" stroke-opacity="0.16" stroke-width="3" stroke-linecap="round" /><line x1="0.0" y1="196.0" x2="965.0" y2="249.2" stroke="#E6D5C3" stroke-opacity="0.16" stroke-width="3" stroke-linecap="round" /><line x1="1600.0" y1="196.0" x2="1255.0" y2="249.2" stroke="#E6D5C3" stroke-opacity="0.16" stroke-width="3" stroke-linecap="round" /><line x1="0.0" y1="230.0" x2="965.0" y2="261.4" stroke="#E6D5C3" stroke-opacity="0.16" stroke-width="3" stroke-linecap="round" /><line x1="1600.0" y1="230.0" x2="1255.0" y2="261.4" stroke="#E6D5C3" stroke-opacity="0.16" stroke-width="3" stroke-linecap="round" /><line x1="0.0" y1="264.0" x2="965.0" y2="273.6" stroke="#E6D5C3" stroke-opacity="0.16" stroke-width="3" stroke-linecap="round" /><line x1="1600.0" y1="264.0" x2="1255.0" y2="273.6" stroke="#E6D5C3" stroke-opacity="0.16" stroke-width="3" stroke-linecap="round" /><line x1="0.0" y1="298.0" x2="965.0" y2="285.9" stroke="#E6D5C3" stroke-opacity="0.16" stroke-width="3" stroke-linecap="round" /><line x1="1600.0" y1="298.0" x2="1255.0" y2="285.9" stroke="#E6D5C3" stroke-opacity="0.16" stroke-width="3" stroke-linecap="round" /><line x1="0.0" y1="332.0" x2="965.0" y2="298.1" stroke="#E6D5C3" stroke-opacity="0.16" stroke-width="3" stroke-linecap="round" /><line x1="1600.0" y1="332.0" x2="1255.0" y2="298.1" stroke="#E6D5C3" stroke-opacity="0.16" stroke-width="3" stroke-linecap="round" /><line x1="0.0" y1="366.0" x2="965.0" y2="310.4" stroke="#E6D5C3" stroke-opacity="0.16" stroke-width="3" stroke-linecap="round" /><line x1="1600.0" y1="366.0" x2="1255.0" y2="310.4" stroke="#E6D5C3" stroke-opacity="0.16" stroke-width="3" stroke-linecap="round" /><line x1="0.0" y1="400.0" x2="965.0" y2="322.6" stroke="#E6D5C3" stroke-opacity="0.16" stroke-width="3" stroke-linecap="round" /><line x1="1600.0" y1="400.0" x2="1255.0" y2="322.6" stroke="#E6D5C3" stroke-opacity="0.16" stroke-width="3" stroke-linecap="round" /><line x1="0.0" y1="434.0" x2="965.0" y2="334.8" stroke="#E6D5C3" stroke-opacity="0.16" stroke-width="3" stroke-linecap="round" /><line x1="1600.0" y1="434.0" x2="1255.0" y2="334.8" stroke="#E6D5C3" stroke-opacity="0.16" stroke-width="3" stroke-linecap="round" /><line x1="0.0" y1="468.0" x2="965.0" y2="347.1" stroke="#E6D5C3" stroke-opacity="0.16" stroke-width="3" stroke-linecap="round" /><line x1="1600.0" y1="468.0" x2="1255.0" y2="347.1" stroke="#E6D5C3" stroke-opacity="0.16" stroke-width="3" stroke-linecap="round" /><line x1="0.0" y1="502.0" x2="965.0" y2="359.3" stroke="#E6D5C3" stroke-opacity="0.16" stroke-width="3" stroke-linecap="round" /><line x1="1600.0" y1="502.0" x2="1255.0" y2="359.3" stroke="#E6D5C3" stroke-opacity="0.16" stroke-width="3" stroke-linecap="round" /><line x1="0.0" y1="536.0" x2="965.0" y2="371.5" stroke="#E6D5C3" stroke-opacity="0.16" stroke-width="3" stroke-linecap="round" /><line x1="1600.0" y1="536.0" x2="1255.0" y2="371.5" stroke="#E6D5C3" stroke-opacity="0.16" stroke-width="3" stroke-linecap="round" /><line x1="0.0" y1="570.0" x2="965.0" y2="383.8" stroke="#E6D5C3" stroke-opacity="0.16" stroke-width="3" stroke-linecap="round" /><line x1="1600.0" y1="570.0" x2="1255.0" y2="383.8" stroke="#E6D5C3" stroke-opacity="0.16" stroke-width="3" stroke-linecap="round" /><line x1="0.0" y1="604.0" x2="965.0" y2="396.0" stroke="#E6D5C3" stroke-opacity="0.16" stroke-width="3" stroke-linecap="round" /><line x1="1600.0" y1="604.0" x2="1255.0" y2="396.0" stroke="#E6D5C3" stroke-opacity="0.16" stroke-width="3" stroke-linecap="round" /></g>
  <g><rect x="52" y="38" width="76" height="12" rx="6" fill="#181512" fill-opacity="0.72" /><rect x="52" y="590" width="76" height="12" rx="6" fill="#181512" fill-opacity="0.72" /><rect x="184" y="38" width="76" height="12" rx="6" fill="#181512" fill-opacity="0.72" /><rect x="184" y="590" width="76" height="12" rx="6" fill="#181512" fill-opacity="0.72" /><rect x="316" y="38" width="76" height="12" rx="6" fill="#181512" fill-opacity="0.72" /><rect x="316" y="590" width="76" height="12" rx="6" fill="#181512" fill-opacity="0.72" /><rect x="448" y="38" width="76" height="12" rx="6" fill="#181512" fill-opacity="0.72" /><rect x="448" y="590" width="76" height="12" rx="6" fill="#181512" fill-opacity="0.72" /><rect x="580" y="38" width="76" height="12" rx="6" fill="#181512" fill-opacity="0.72" /><rect x="580" y="590" width="76" height="12" rx="6" fill="#181512" fill-opacity="0.72" /><rect x="712" y="38" width="76" height="12" rx="6" fill="#181512" fill-opacity="0.72" /><rect x="712" y="590" width="76" height="12" rx="6" fill="#181512" fill-opacity="0.72" /><rect x="844" y="38" width="76" height="12" rx="6" fill="#181512" fill-opacity="0.72" /><rect x="844" y="590" width="76" height="12" rx="6" fill="#181512" fill-opacity="0.72" /><rect x="976" y="38" width="76" height="12" rx="6" fill="#181512" fill-opacity="0.72" /><rect x="976" y="590" width="76" height="12" rx="6" fill="#181512" fill-opacity="0.72" /><rect x="1108" y="38" width="76" height="12" rx="6" fill="#181512" fill-opacity="0.72" /><rect x="1108" y="590" width="76" height="12" rx="6" fill="#181512" fill-opacity="0.72" /><rect x="1240" y="38" width="76" height="12" rx="6" fill="#181512" fill-opacity="0.72" /><rect x="1240" y="590" width="76" height="12" rx="6" fill="#181512" fill-opacity="0.72" /><rect x="48" y="86" width="14" height="34" rx="7" fill="#1C1917" fill-opacity="0.78" /><rect x="1538" y="86" width="14" height="34" rx="7" fill="#1C1917" fill-opacity="0.78" /><rect x="48" y="142" width="14" height="34" rx="7" fill="#1C1917" fill-opacity="0.78" /><rect x="1538" y="142" width="14" height="34" rx="7" fill="#1C1917" fill-opacity="0.78" /><rect x="48" y="198" width="14" height="34" rx="7" fill="#1C1917" fill-opacity="0.78" /><rect x="1538" y="198" width="14" height="34" rx="7" fill="#1C1917" fill-opacity="0.78" /><rect x="48" y="254" width="14" height="34" rx="7" fill="#1C1917" fill-opacity="0.78" /><rect x="1538" y="254" width="14" height="34" rx="7" fill="#1C1917" fill-opacity="0.78" /><rect x="48" y="310" width="14" height="34" rx="7" fill="#1C1917" fill-opacity="0.78" /><rect x="1538" y="310" width="14" height="34" rx="7" fill="#1C1917" fill-opacity="0.78" /><rect x="48" y="366" width="14" height="34" rx="7" fill="#1C1917" fill-opacity="0.78" /><rect x="1538" y="366" width="14" height="34" rx="7" fill="#1C1917" fill-opacity="0.78" /><rect x="48" y="422" width="14" height="34" rx="7" fill="#1C1917" fill-opacity="0.78" /><rect x="1538" y="422" width="14" height="34" rx="7" fill="#1C1917" fill-opacity="0.78" /><rect x="48" y="478" width="14" height="34" rx="7" fill="#1C1917" fill-opacity="0.78" /><rect x="1538" y="478" width="14" height="34" rx="7" fill="#1C1917" fill-opacity="0.78" /><rect x="48" y="534" width="14" height="34" rx="7" fill="#1C1917" fill-opacity="0.78" /><rect x="1538" y="534" width="14" height="34" rx="7" fill="#1C1917" fill-opacity="0.78" /></g>

  <rect x="78" y="86" width="730" height="468" rx="30" fill="url(#glass)" stroke="#E8EEF4" stroke-opacity="0.16" />
  <rect x="98" y="108" width="690" height="424" rx="24" fill="#02060B" fill-opacity="0.18" />
  <rect x="114" y="136" width="116" height="8" rx="4" fill="#4FD1C5" />

  <text x="118" y="182" fill="#BBD5E8" font-family="Segoe UI, Arial, sans-serif" font-size="28" font-weight="700" letter-spacing="3">HELLO, I'M GABRIEL DUARTE</text>
  <text x="118" y="286" fill="#FFFFFF" font-family="Segoe UI, Arial, sans-serif" font-size="78" font-weight="800">Machine Learning</text>
  <text x="118" y="364" fill="#FFFFFF" font-family="Segoe UI, Arial, sans-serif" font-size="78" font-weight="800">Engineer</text>
  <text x="118" y="430" fill="#D9E6F2" font-family="Segoe UI, Arial, sans-serif" font-size="34" font-weight="600">Reinforcement Learning &amp; Deep Learning</text>

  <rect x="118" y="460" width="410" height="52" rx="26" fill="#0EA5E9" fill-opacity="0.20" stroke="#7DD3FC" stroke-opacity="0.34" />
  <text x="148" y="494" fill="#E6F6FF" font-family="Segoe UI, Arial, sans-serif" font-size="24" font-weight="700">AI Engineering (Bachelor's Degree)</text>

  <circle cx="1110" cy="292" r="164" fill="#7DD3FC" fill-opacity="0.10" filter="url(#shadow)" />
  <rect x="941" y="154" width="338" height="276" rx="18" fill="#0A0908" fill-opacity="0.32" stroke="#DAC6B0" stroke-opacity="0.20" />
  <rect x="955" y="168" width="310" height="248" rx="14" fill="none" stroke="#EAD6BF" stroke-opacity="0.22" />
  <rect x="965" y="178" width="290" height="228" rx="12" fill="url(#chipFrame)" />
  <rect x="983" y="196" width="254" height="192" rx="10" fill="#091116" />
  <rect x="993" y="206" width="234" height="172" rx="8" fill="url(#chipGlow)" />
  <rect x="1001" y="214" width="218" height="156" rx="6" fill="#05070A" fill-opacity="0.18" />
  <rect x="971" y="270" width="12" height="24" rx="6" fill="#DCC9B5" />
  <rect x="971" y="300" width="12" height="24" rx="6" fill="#DCC9B5" />
  <rect x="1237" y="270" width="12" height="24" rx="6" fill="#DCC9B5" />
  <rect x="1237" y="300" width="12" height="24" rx="6" fill="#DCC9B5" />
  <g opacity="0.24">
    <path d="M1015 228H1205" stroke="#FFFFFF" />
    <path d="M1015 262H1205" stroke="#FFFFFF" />
    <path d="M1015 296H1205" stroke="#FFFFFF" />
    <path d="M1015 330H1205" stroke="#FFFFFF" />
  </g>
  <text x="1057" y="326" fill="#F5FBFF" font-family="Segoe UI, Arial, sans-serif" font-size="104" font-weight="800">AI</text>
  <rect x="1017" y="344" width="186" height="8" rx="4" fill="#FFFFFF" fill-opacity="0.36" />

  <ellipse cx="1184" cy="520" rx="206" ry="34" fill="#000000" fill-opacity="0.24" filter="url(#soft)" />
</svg>
