<svg width="1200" height="320" viewBox="0 0 1200 320" fill="none" xmlns="http://www.w3.org/2000/svg">
  <defs>
    <linearGradient id="bg" x1="0" y1="0" x2="1200" y2="320" gradientUnits="userSpaceOnUse">
      <stop stop-color="#0B132B"/>
      <stop offset="1" stop-color="#1C7293"/>
    </linearGradient>
    <linearGradient id="accent" x1="188" y1="44" x2="1035" y2="288" gradientUnits="userSpaceOnUse">
      <stop stop-color="#56CFE1"/>
      <stop offset="1" stop-color="#F6AE2D"/>
    </linearGradient>
    <filter id="blur" x="-20%" y="-20%" width="140%" height="140%">
      <feGaussianBlur stdDeviation="34"/>
    </filter>
  </defs>

  <rect width="1200" height="320" rx="28" fill="url(#bg)"/>

  <g opacity="0.12">
    <path d="M0 64H1200" stroke="#D9EAF4"/>
    <path d="M0 128H1200" stroke="#D9EAF4"/>
    <path d="M0 192H1200" stroke="#D9EAF4"/>
    <path d="M0 256H1200" stroke="#D9EAF4"/>
    <path d="M120 0V320" stroke="#D9EAF4"/>
    <path d="M240 0V320" stroke="#D9EAF4"/>
    <path d="M360 0V320" stroke="#D9EAF4"/>
    <path d="M480 0V320" stroke="#D9EAF4"/>
    <path d="M600 0V320" stroke="#D9EAF4"/>
    <path d="M720 0V320" stroke="#D9EAF4"/>
    <path d="M840 0V320" stroke="#D9EAF4"/>
    <path d="M960 0V320" stroke="#D9EAF4"/>
    <path d="M1080 0V320" stroke="#D9EAF4"/>
  </g>

  <circle cx="958" cy="88" r="110" fill="#56CFE1" opacity="0.72" filter="url(#blur)"/>
  <circle cx="1060" cy="238" r="88" fill="#F6AE2D" opacity="0.58" filter="url(#blur)"/>

  <rect x="64" y="54" width="118" height="118" rx="28" fill="#FFFFFF" opacity="0.08"/>
  <rect x="82" y="72" width="82" height="82" rx="22" fill="url(#accent)"/>
  <path d="M110 98L95 113L110 128" stroke="#0B132B" stroke-width="8" stroke-linecap="round" stroke-linejoin="round"/>
  <path d="M136 98L151 113L136 128" stroke="#0B132B" stroke-width="8" stroke-linecap="round" stroke-linejoin="round"/>
  <path d="M116 141H146" stroke="#0B132B" stroke-width="8" stroke-linecap="round"/>

  <text x="216" y="92" fill="#8ECAE6" font-family="Segoe UI, Arial, sans-serif" font-size="18" font-weight="700" letter-spacing="2">GITHUB README</text>
  <text x="216" y="156" fill="#FFFFFF" font-family="Segoe UI, Arial, sans-serif" font-size="56" font-weight="800">NeuroSync-RL</text>
  <text x="216" y="198" fill="#D9EAF4" font-family="Segoe UI, Arial, sans-serif" font-size="22" font-weight="500">Interface Cerebro-Maquina de Malha Fechada</text>
  <text x="216" y="230" fill="#B8D8E6" font-family="Segoe UI, Arial, sans-serif" font-size="16" font-weight="500">Deep Reinforcement Learning, PyTorch e simulacao termodinamica</text>

  <g transform="translate(216 252)">
    <rect width="110" height="34" rx="17" fill="#FFFFFF" opacity="0.12"/>
    <text x="55" y="22" text-anchor="middle" fill="#FFFFFF" font-family="Segoe UI, Arial, sans-serif" font-size="14" font-weight="700">PYTHON</text>

    <rect x="122" width="126" height="34" rx="17" fill="#FFFFFF" opacity="0.12"/>
    <text x="185" y="22" text-anchor="middle" fill="#FFFFFF" font-family="Segoe UI, Arial, sans-serif" font-size="14" font-weight="700">PYTORCH</text>

    <rect x="260" width="148" height="34" rx="17" fill="#FFFFFF" opacity="0.12"/>
    <text x="334" y="22" text-anchor="middle" fill="#FFFFFF" font-family="Segoe UI, Arial, sans-serif" font-size="14" font-weight="700">DRL</text>
  </g>

  <path d="M748 62C802 84 856 128 894 194" stroke="#FFFFFF" stroke-width="2" stroke-dasharray="8 10" opacity="0.38"/>
  <path d="M820 210C864 198 912 204 970 238" stroke="#FFFFFF" stroke-width="2" stroke-dasharray="8 10" opacity="0.28"/>
</svg>
